<?xml version="1.0" encoding="iso-8859-1"?>
<!-- Generator: Adobe Illustrator 16.0.0, SVG Export Plug-In . SVG Version: 6.00 Build 0)  -->
<!DOCTYPE svg PUBLIC "-//W3C//DTD SVG 1.1//EN" "http://www.w3.org/Graphics/SVG/1.1/DTD/svg11.dtd">
<svg version="1.1" id="Capa_1"
	xmlns="http://www.w3.org/2000/svg"
	xmlns:xlink="http://www.w3.org/1999/xlink" x="0px" y="0px" width="369.955px" height="369.955px" viewBox="0 0 369.955 369.955" style="enable-background:new 0 0 369.955 369.955;" xml:space="preserve">
	<g>
		<path fill="#00e8da" d="M184.978,0.003C82.818,0.003,0,82.821,0,184.981c0,102.147,82.818,184.971,184.978,184.971
			c102.16,0,184.978-82.824,184.978-184.971C369.949,82.815,287.125,0.003,184.978,0.003z M184.978,352.389
			c-92.93,0-168.536-75.601-168.536-168.521c0-92.934,75.606-168.546,168.536-168.546c92.925,0,168.537,75.612,168.537,168.546
			C353.509,276.788,277.902,352.389,184.978,352.389z"/>
		<path fill="#00e8da" d="M199.42,40.728v137.336l10.568-10.578c5.206-5.206,13.643-5.206,18.849,0c5.206,5.215,5.206,13.652,0,18.855
			l-33.32,33.318c-0.007,0-0.019,0.012-0.019,0.012l-9.412,9.421l-9.422-9.421c0,0-0.006-0.012-0.018-0.012l-31.096-31.1
			c-2.6-2.606-3.903-6.02-3.903-9.427c0-3.405,1.303-6.819,3.903-9.424c5.209-5.209,13.646-5.209,18.852,0l8.344,8.35V40.604
			C99.133,46.841,41.1,108.648,41.1,183.867c0,79.326,64.54,143.866,143.866,143.866c79.329,0,143.881-64.54,143.881-143.866
			C328.847,109.398,271.981,47.981,199.42,40.728z"/>
	</g>
</svg>